# xmcd
# Copyright (C) 1995-1998 Ti Kan
#
# Track frame offsets:
#       150
#       17339
#       37860
#       55011
#       79328
#       96477
#       115014
#       131108
#       153650
#       172825
#       185361
#
# Disc length: 2735 seconds
#
# Revision: 0
# Processed by: cddbd v1.5.1PL2 Copyright (c) Steve Scherf et al.
# Submitted via: CD-Transfer v1.0
#
DISCID=810aad0b
DTITLE=Luv - Hotel Hollywood
DYEAR=2006
DGENRE=
TTITLE0=Ännet Em Ziel
TTITLE1=Hollywood
TTITLE2=Troum
TTITLE3=Spanie Eifach
TTITLE4=Star
TTITLE5=Bring Di Nid Usem Chopf
TTITLE6=So Mängs Isch Besser
TTITLE7=Navigation
TTITLE8=Trüeb
TTITLE9=Gfange
TTITLE10=Silveschter
EXTD=
EXTT0=
EXTT1=
EXTT2=
EXTT3=
EXTT4=
EXTT5=
EXTT6=
EXTT7=
EXTT8=
EXTT9=
EXTT10=
PLAYORDER=
